<svg width="359" height="463" viewBox="0 0 359 463" fill="none" xmlns="http://www.w3.org/2000/svg">
<path id="brain" d="M280.5 462L266.5 422.5L228.5 331.5L190.5 260L175.5 235L184 241.5L196 263L212.5 276L224.5 278.5L280.5 260L309 231.5L336 204.5L355.5 182.5L358 146.5L345 98L321 57L290.5 30L253 12.5L196 0.5H161L114.5 8L56 30L18 68.5L0.5 112.5V138L7 146.5L33.5 169.5L73 185.5L98 204.5L114.5 210.5L128.5 223L134.5 231.5L142.5 235H149L154.5 246L180.5 285.5L209.5 331.5L238.5 389L259 437L269 462" stroke="black"/>
</svg>
