<svg width="600" height="425" viewBox="0 0 600 425" fill="none" xmlns="http://www.w3.org/2000/svg">
<g id="Frame 8">
<rect width="600" height="425" fill="white"/>
<g id="compass 1">
<g id="Group">
<path id="Vector" d="M297.269 68.9932L297.573 68.6669V67.1004L297.269 66.7741H295.069L293.78 65.5993V57.7017L296.207 57.049L306.373 68.9932L306.601 69.1237H307.587L309.18 68.7974L309.484 68.5364V53.2634L310.773 52.1539L311.684 52.0886L311.987 51.8275V50.2611L311.684 50H303.339L303.035 50.2611V51.8275L303.339 52.2192H305.311L306.601 53.3287V61.7484L304.249 62.4011L293.78 50.0653L293.476 50H288.545L288.241 50.2611V51.8275L288.545 52.1539H289.607L290.821 53.2634V65.6645L289.531 66.7741L288.545 66.8393L288.241 67.1004V68.6669L288.545 68.9932H297.269Z" fill="#404040"/>
<path id="Vector_2" d="M301.594 359.57L298.332 359.113C294.993 358.656 293.628 357.938 293.628 356.046C293.628 354.087 295.676 353.108 299.697 353.108C300.532 353.108 301.518 353.174 302.277 353.304L303.414 354.544L303.111 356.633L303.339 356.959L305.159 357.22L305.539 357.025L306.07 355.328L307.739 354.414L308.422 352.978L308.27 352.652C306.07 351.607 302.808 350.955 299.621 350.955C293.931 350.955 290.517 352.847 290.517 356.307C290.517 359.244 292.793 361.006 297.421 361.528L300.759 361.92C304.173 362.311 305.463 363.225 305.463 365.118C305.463 367.468 303.339 368.447 299.242 368.447C297.725 368.447 296.587 368.316 295.525 368.186L294.538 367.011V364.792L294.235 364.4H292.49L292.111 364.596L291.807 366.032L290.138 367.011L289.379 368.708L289.607 369.034C292.566 370.144 295.525 370.601 299.318 370.601C305.235 370.601 308.573 368.381 308.573 364.987C308.573 361.985 306.297 360.157 301.594 359.57Z" fill="#404040"/>
<path id="Vector_3" d="M482.38 216.24L482.987 212.323L482.683 212.062L480.711 211.801L480.407 212.062L479.497 216.305L478.131 217.219H470.241L468.952 216.109V211.671L470.241 210.561H477.069L477.373 210.235V208.603L477.069 208.342H470.241L468.952 207.167V203.838L470.241 202.729H477.221L478.511 203.643L479.118 206.71L479.497 206.906L481.394 206.71L481.697 206.449L481.394 203.708L482.987 202.207V200.771L482.607 200.51H463.641L463.262 200.771V202.337L463.565 202.664H464.703L465.993 203.838V216.174L464.703 217.349H463.641L463.262 217.61V219.242L463.641 219.503H483.366L483.745 219.242V217.741L482.38 216.24Z" fill="#404040"/>
<path id="Vector_4" d="M130.594 199.139L130.215 199.4V200.967L130.594 201.293H131.656L132.87 202.794L129.684 211.671H127.104L123.159 199.922L122.856 199.727H120.201L119.897 199.922L115.952 211.671H113.373L110.262 202.794L111.476 201.293H112.918L113.221 200.967V199.4L112.918 199.139H104.724L104.421 199.4V200.967L104.724 201.293H105.559L106.773 202.076L112.842 218.002L113.145 218.198H116.256L116.635 218.002L120.201 207.232H122.704L126.27 218.002L126.573 218.198H129.76L130.063 218.002L136.132 202.076L137.346 201.293H138.105L138.408 200.967V199.4L138.105 199.139H130.594Z" fill="#404040"/>
<path id="Vector_5" d="M418.426 297.891L416.302 299.261C414.177 300.697 412.888 300.763 411.598 299.718C410.081 298.413 410.612 296.847 412.888 294.888C413.722 294.171 414.405 293.714 415.088 293.257L416.377 293.453L417.819 294.693L418.274 294.758L419.26 293.909L419.336 293.583L418.577 292.604L418.881 291.233L418.198 289.928L417.895 289.863C415.543 290.711 413.57 291.821 411.446 293.583C408.108 296.455 407.805 299.261 409.929 301.089C411.901 302.786 414.405 302.721 417.439 300.828L419.564 299.523C421.688 298.152 422.902 297.956 424.116 299C425.405 300.11 424.874 301.611 422.598 303.569C422.143 303.961 421.536 304.418 421.005 304.744L419.564 304.548L418.35 303.243L417.971 303.178L416.757 303.896L416.681 304.157L417.515 305.331L417.212 306.637L417.743 307.746L418.046 307.877C419.943 307.42 422.143 306.245 423.888 304.679C427.074 301.938 427.757 299.262 425.481 297.369C423.812 295.868 421.46 295.933 418.426 297.891Z" fill="#404040"/>
<path id="Vector_6" d="M415.619 309.248L415.012 309.705H413.57L405.605 302.851V301.611L406.136 301.089V300.763L405.149 299.914H404.77L393.77 309.313V309.705L394.68 310.423L396.425 310.684L398.625 313.164H399.004L400.218 312.315V312.054L398.018 309.248L398.094 308.073L402.494 304.353H403.935L406.818 306.768V308.073L403.101 311.271V311.597L404.163 312.511H404.542L408.26 309.313H409.777L411.825 311.141V312.381L408.032 315.709L406.743 315.775L404.391 314.469L404.011 314.535L403.101 315.448V315.84L404.998 317.145L405.149 318.712L406.136 319.56H406.439L417.06 310.423V310.162L415.998 309.248H415.619Z" fill="#404040"/>
<path id="Vector_7" d="M397.184 112.593L398.17 111.679L398.246 111.353L397.032 110.243V109.003L402.115 104.63L403.86 105.348L401.811 116.901L401.963 117.096L402.494 117.553L403.556 118.141H403.86L413.722 109.656H415.163L415.695 110.047H416.074L417.06 109.134V108.872L412.432 104.891H412.129L411.067 105.74L410.991 106.131L412.129 107.045V108.285L406.667 112.984L404.922 112.201L407.046 100.388L406.97 100.192L404.163 97.842H403.86L402.798 98.6906V99.0169L403.404 99.5391V100.779L395.363 107.632H393.921L393.314 107.176H392.935L392.025 108.089V108.35L396.804 112.593H397.184Z" fill="#404040"/>
<path id="Vector_8" d="M418.198 113.506L410.232 120.425H408.791L408.184 119.968H407.881L406.818 120.817V121.143L417.819 130.542H418.122L419.109 129.758L419.336 128.257L422.143 126.43L422.219 126.103L421.309 125.059L420.929 124.994L417.667 126.952L416.377 126.887L411.977 123.036V121.861L414.784 119.381H416.226L420.019 122.579H420.322L421.46 121.665V121.339L417.667 118.141V116.835L419.867 115.008H421.309L425.102 118.271L425.254 119.381L423.66 121.404L423.736 121.73L424.95 122.514H425.254L426.847 120.882L428.743 120.751L429.578 119.968V119.642L419.109 110.569H418.729L417.667 111.483V111.809L418.274 112.266L418.198 113.506Z" fill="#404040"/>
<path id="Vector_9" d="M168.223 124.08L168.83 123.558L170.196 123.623L178.161 130.476V131.717L177.706 132.173V132.565L178.693 133.414H179.072L183.927 129.171V128.91L182.941 128.062L182.486 127.996L181.196 129.041H179.755L174.672 124.668L175.582 123.166L188.934 124.863L189.162 124.798L189.693 124.406L190.452 123.493L190.376 123.166L180.589 114.681V113.441L181.044 112.984V112.723L179.982 111.81H179.603L175.051 115.791V116.117L176.037 116.966L176.417 117.031L177.555 116.117H178.996L184.382 120.751L183.548 122.253L169.816 120.425L169.589 120.49L166.782 122.84V123.166L167.844 124.015L168.223 124.08Z" fill="#404040"/>
<path id="Vector_10" d="M182.637 111.614L183.093 111.222L184.306 111.092L197.962 116.966H198.19L200.011 115.399V115.138L195.079 107.502L196.445 106.327L205.397 110.569L205.7 110.504L207.521 109.003V108.742L200.617 97.0587L200.769 96.0797L201.224 95.6881V95.3617L200.238 94.448H199.783L195.61 98.0378V98.3641L196.597 99.2126H197.052L197.659 98.7557L199.252 99.0168L203.197 105.478L201.755 106.653L191.969 102.019L191.665 102.084L190.224 103.325V103.586L195.61 112.005L194.169 113.18L186.734 109.786L186.431 108.35L187.189 107.632V107.371L186.203 106.457H185.824L181.272 110.374V110.7L182.334 111.614H182.637Z" fill="#404040"/>
<path id="Vector_11" d="M196.9 305.658C194.928 307.355 195.003 309.509 197.204 312.12L198.721 313.947C200.314 315.775 200.542 316.819 199.328 317.863C198.038 318.973 196.293 318.516 194.017 316.558C193.562 316.166 193.031 315.644 192.652 315.187L192.879 313.947L194.397 312.903L194.472 312.576L193.638 311.532L193.334 311.467L191.969 312.185L190.452 311.924L189.162 312.381L189.086 312.642C189.617 314.273 190.983 316.166 192.803 317.667C195.99 320.409 199.1 320.996 201.3 319.038C203.197 317.406 203.121 315.383 200.845 312.838L199.252 311.01C197.583 309.182 197.507 308.073 198.721 306.963C200.238 305.658 202.059 306.115 204.335 308.073C205.169 308.791 205.7 309.378 206.231 309.966L206.004 311.075L204.562 312.315L204.487 312.707L205.473 313.555L205.852 313.621L206.99 312.968L208.583 313.229L210.101 312.642L210.176 312.381C209.19 310.357 207.9 308.66 205.852 306.833C202.286 304.092 199.024 303.765 196.9 305.658Z" fill="#404040"/>
<path id="Vector_12" d="M187.189 309.313L194.017 297.63V297.303L192.272 295.867L191.969 295.802L183.017 300.045L181.651 298.87L186.582 291.168V290.907L184.762 289.406L184.458 289.341L170.878 295.28L169.665 295.15L169.209 294.758H168.83L167.844 295.672V295.998L172.016 299.588H172.396L173.458 298.674V298.413L172.851 297.891L173.154 296.455L180.589 293.061L182.031 294.301L176.644 302.655L176.72 302.982L178.161 304.222L178.465 304.287L188.251 299.653L189.617 300.828L185.672 307.289L184.003 307.551L183.244 306.833H182.865L181.803 307.681V308.007L186.431 311.924H186.734L187.796 311.075L187.872 310.749L187.341 310.292L187.189 309.313Z" fill="#404040"/>
<path id="Vector_13" d="M432.233 206.319C430.412 146.272 374.272 97.6464 304.552 95.6231L302.125 72.7137C301.442 72.7137 300.683 72.6484 300.001 72.6484C299.621 72.6484 299.318 72.6484 298.938 72.6484L296.511 95.4925C226.715 97.1242 170.196 145.423 167.844 205.405L141.215 207.494C141.215 208.081 141.139 208.734 141.139 209.321C141.139 209.648 141.139 209.909 141.139 210.235L167.692 212.324C169.513 272.371 225.729 320.996 295.373 323.019L297.8 345.929C298.483 345.929 299.242 345.994 299.925 345.994C300.304 345.994 300.607 345.994 300.987 345.994L303.414 323.15C373.21 321.584 429.73 273.219 432.081 213.303L458.71 211.214C458.71 210.627 458.786 209.974 458.786 209.387C458.786 209.06 458.786 208.799 458.786 208.473L432.233 206.319ZM406.743 145.227C417.44 158.346 424.874 173.489 428.288 189.871L421.991 190.85C418.805 175.316 411.674 160.892 401.508 148.425L406.743 145.227ZM322.76 99.017C341.802 101.954 359.403 108.35 374.652 117.553L371.01 122.057C356.52 113.311 339.754 107.176 321.698 104.434L322.76 99.017ZM421.688 205.47L417.971 205.144C415.467 152.733 366.686 110.439 305.918 107.828L305.539 104.63C368.658 107.176 419.412 151.102 421.688 205.47ZM386.942 182.496C385.197 178.319 382.997 174.272 380.493 170.421L388.838 158.607L372.907 160.696C371.238 158.869 369.417 157.041 367.596 155.279L380.19 141.703C380.569 141.311 380.493 140.789 380.114 140.463C379.735 140.136 379.052 140.136 378.673 140.528L363.727 151.885C361.451 150.057 359.023 148.23 356.52 146.598L358.948 132.892L345.216 140.136C340.74 137.983 336.036 136.09 331.181 134.589L328.602 121.013L318.208 131.521C315.022 130.999 311.76 130.542 308.497 130.346L306.221 109.591C365.851 112.267 413.722 153.712 416.302 205.209L392.176 203.251C391.873 200.053 391.342 196.92 390.659 193.853L402.798 184.911L386.942 182.496ZM390.659 224.725C391.266 222.049 391.721 219.373 392.025 216.566L416.15 214.608C413.039 265.909 364.865 307.094 305.008 309.313L307.284 288.558C310.849 288.362 314.263 287.905 317.677 287.317L327.995 297.891L330.726 284.315C335.657 282.814 340.285 280.986 344.837 278.833L358.492 286.143L356.217 272.436C358.568 270.87 360.768 269.238 362.968 267.541L378.748 278.376C379.204 278.702 379.81 278.637 380.19 278.31C380.569 277.984 380.569 277.397 380.114 277.07L366.913 264.212C369.189 262.189 371.238 260.035 373.21 257.881L389.142 259.905L380.721 248.156C383.224 244.305 385.425 240.259 387.169 236.016L402.949 233.732L390.659 224.725ZM357.43 269.238C353.789 271.849 349.92 274.198 345.823 276.287L334.367 259.187C337.326 257.685 340.133 255.988 342.713 254.096L357.43 269.238ZM347.492 257.033L361.224 266.431C360.389 267.149 359.479 267.802 358.644 268.455L347.492 257.033ZM323.746 263.56C327.008 262.515 330.043 261.275 333.002 259.839L344.457 276.94C340.361 278.898 336.036 280.66 331.56 282.161L323.746 263.56ZM330.119 282.618C325.719 283.989 321.091 285.033 316.387 285.816L312.367 266.431C315.78 265.909 319.043 265.126 322.229 264.147L330.119 282.618ZM310.166 262.254L313.277 233.666L338.919 251.159C330.726 256.837 320.863 260.688 310.166 262.254ZM310.925 266.562L314.946 286.012C312.518 286.338 310.015 286.599 307.511 286.795L309.635 266.693C310.091 266.693 310.47 266.627 310.925 266.562ZM368.582 259.774C367.596 260.818 366.61 261.732 365.472 262.711L351.285 247.308L368.582 259.774ZM352.044 246.133C354.168 243.914 356.141 241.434 357.886 238.953L377.762 248.809C375.334 252.333 372.603 255.662 369.569 258.795L352.044 246.133ZM388.99 222.244L366.382 218.785C366.382 218.72 366.382 218.72 366.458 218.589L389.825 216.697C389.597 218.589 389.369 220.417 388.99 222.244ZM388.763 223.485C387.928 227.531 386.638 231.447 385.045 235.298L363.5 228.576C364.638 225.834 365.472 223.028 366.155 220.091L388.763 223.485ZM384.59 236.538C382.921 240.389 380.873 244.11 378.597 247.634L358.72 237.778C360.389 235.233 361.831 232.557 363.044 229.816L384.59 236.538ZM347.871 243.587L327.691 221.722L361.224 219.046C359.251 228.249 354.623 236.669 347.871 243.587ZM365.548 267.084L314.187 231.97L308.877 222.767C309.939 222.244 311.001 221.592 311.911 220.939L365.548 267.084ZM342.637 164.612C340.057 162.785 337.174 161.088 334.292 159.586L345.747 142.486C349.844 144.575 353.713 146.924 357.354 149.535L342.637 164.612ZM358.568 150.318C359.782 151.167 360.844 152.015 361.982 152.994L344.078 165.2L358.568 150.318ZM333.002 158.868C330.043 157.433 326.933 156.192 323.746 155.148L331.56 136.612C336.036 138.048 340.361 139.81 344.457 141.768L333.002 158.868ZM322.305 154.691C319.119 153.712 315.856 152.994 312.442 152.407L316.463 133.022C321.167 133.74 325.719 134.85 330.195 136.22L322.305 154.691ZM310.925 152.211C310.849 152.211 310.849 152.211 310.698 152.146L308.497 132.043C310.622 132.239 312.746 132.435 314.87 132.761L310.925 152.211ZM339.754 168.137L314.339 185.498L311.229 156.649C321.926 158.346 331.636 162.458 339.754 168.137ZM367.065 152.929L326.25 197.116L315.553 201.685C314.946 200.771 314.187 199.857 313.429 199.074L367.065 152.929ZM355.382 168.594L366.307 156.78C367.141 157.498 367.9 158.281 368.658 158.999L355.382 168.594ZM369.645 159.978C372.679 163.111 375.41 166.44 377.838 169.964L357.961 179.82C356.217 177.274 354.244 174.859 352.044 172.64L369.645 159.978ZM348.554 175.904C355.154 182.953 359.63 191.372 361.451 200.641L328.222 197.965L348.554 175.904ZM358.644 180.995L378.521 171.139C380.797 174.664 382.845 178.384 384.59 182.235L363.044 188.957C361.755 186.151 360.313 183.54 358.644 180.995ZM385.045 183.41C386.638 187.195 387.852 191.177 388.763 195.223L366.231 198.682C365.624 195.745 364.713 192.939 363.575 190.198L385.045 183.41ZM388.99 196.529C389.369 198.617 389.673 200.771 389.901 202.925L366.534 201.097C366.458 200.771 366.382 200.379 366.307 199.988L388.99 196.529ZM301.063 82.243L312.291 186.02L306.98 195.158C305.159 194.505 303.111 194.048 300.987 193.983L301.063 82.243ZM277.241 99.017L278.379 104.434C260.323 107.176 243.557 113.311 229.067 122.057L225.425 117.553C240.598 108.35 258.199 101.954 277.241 99.017ZM295.449 104.695L295.069 107.894C234.15 110.047 184.989 152.015 181.955 204.296L178.237 204.622C181.196 150.318 232.253 106.653 295.449 104.695ZM213.059 236.277C214.804 240.454 217.004 244.501 219.508 248.352L211.163 260.166L227.094 258.077C228.763 259.905 230.584 261.732 232.405 263.494L219.811 277.07C219.432 277.462 219.508 277.984 219.887 278.31C220.266 278.637 220.949 278.637 221.329 278.245L236.274 266.888C238.55 268.716 240.978 270.543 243.481 272.175L241.053 285.882L254.785 278.637C259.261 280.791 263.965 282.683 268.82 284.185L271.399 297.76L281.793 287.252C284.979 287.774 288.241 288.231 291.504 288.427L293.78 309.183C234.15 306.507 186.279 264.996 183.7 213.564L207.825 215.522C208.128 218.72 208.659 221.853 209.342 224.921L197.204 233.862L213.059 236.277ZM230.357 258.795C227.322 255.662 224.591 252.333 222.163 248.809L242.04 238.953C243.785 241.499 245.757 243.914 247.957 246.133L230.357 258.795ZM244.619 250.18L233.695 261.993C232.86 261.275 232.101 260.492 231.343 259.774L244.619 250.18ZM238.55 218.133L271.779 220.809L251.447 242.869C244.847 235.82 240.295 227.401 238.55 218.133ZM241.357 237.778L221.48 247.634C219.204 244.11 217.156 240.389 215.411 236.538L236.957 229.816C238.246 232.557 239.612 235.233 241.357 237.778ZM214.88 235.364C213.287 231.578 212.073 227.597 211.163 223.55L233.695 220.091C234.302 223.028 235.212 225.834 236.35 228.576L214.88 235.364ZM210.935 222.244C210.556 220.156 210.252 218.002 210.025 215.848L233.391 217.676C233.467 218.002 233.543 218.394 233.619 218.785L210.935 222.244ZM268.365 282.161C263.889 280.725 259.565 278.963 255.468 277.005L266.923 259.905C269.882 261.341 272.993 262.581 276.179 263.625L268.365 282.161ZM277.62 264.082C280.807 265.061 284.069 265.779 287.483 266.366L283.462 285.751C278.758 285.033 274.206 283.923 269.73 282.553L277.62 264.082ZM254.178 276.287C250.081 274.198 246.212 271.849 242.571 269.238L257.289 254.096C259.868 255.923 262.751 257.62 265.634 259.121L254.178 276.287ZM241.357 268.455C240.143 267.606 239.081 266.758 237.943 265.779L255.847 253.573L241.357 268.455ZM285.055 286.012L289.076 266.562C289.152 266.562 289.152 266.562 289.304 266.627L291.504 286.73C289.304 286.534 287.179 286.273 285.055 286.012ZM260.247 250.571L285.662 233.21L288.773 262.058C278.076 260.427 268.289 256.315 260.247 250.571ZM232.936 265.844L273.751 221.657L284.448 217.088C285.055 218.002 285.814 218.916 286.572 219.699L232.936 265.844ZM211.239 195.289C212.073 191.242 213.363 187.326 214.956 183.475L236.502 190.198C235.364 192.939 234.529 195.745 233.846 198.682L211.239 195.289ZM233.543 199.988C233.543 200.053 233.543 200.053 233.467 200.184L210.101 202.076C210.328 200.249 210.556 198.421 210.935 196.594L233.543 199.988ZM215.411 182.169C217.08 178.319 219.129 174.598 221.404 171.074L241.281 180.929C239.612 183.475 238.171 186.151 236.957 188.892L215.411 182.169ZM247.957 172.64C245.833 174.859 243.86 177.34 242.116 179.82L222.239 169.964C224.667 166.44 227.398 163.111 230.432 159.978L247.957 172.64ZM231.343 158.999C232.329 157.955 233.315 157.041 234.453 156.062L248.64 171.465L231.343 158.999ZM252.13 175.186L272.31 197.051L238.778 199.727C240.75 190.524 245.378 182.104 252.13 175.186ZM234.377 151.689L285.738 186.804L291.048 196.006C289.986 196.529 288.924 197.181 288.014 197.834L234.377 151.689ZM277.62 154.691L269.806 136.09C274.206 134.719 278.834 133.675 283.538 132.892L287.559 152.276C284.145 152.994 280.883 153.778 277.62 154.691ZM289.835 156.519L286.724 185.107L261.082 167.615C269.275 161.936 279.062 158.085 289.835 156.519ZM276.255 155.148C272.993 156.192 269.958 157.433 266.999 158.868L255.468 141.833C259.565 139.875 263.889 138.113 268.365 136.612L276.255 155.148ZM265.634 159.586C262.675 161.088 259.868 162.785 257.289 164.677L242.495 149.535C246.136 146.924 250.006 144.575 254.102 142.486L265.634 159.586ZM252.509 161.74L238.778 152.342C239.612 151.624 240.522 150.971 241.357 150.318L252.509 161.74ZM290.29 152.081C289.911 152.146 289.455 152.211 289 152.276L284.979 132.826C287.407 132.5 289.911 132.239 292.414 132.043L290.29 152.081ZM282.248 131.39L271.931 120.817L269.199 134.393C264.268 135.894 259.64 137.721 255.088 139.875L241.433 132.565L243.709 146.272C241.357 147.838 239.157 149.47 236.957 151.167L221.177 140.332C220.722 140.006 220.115 140.071 219.735 140.397C219.356 140.724 219.356 141.311 219.811 141.638L233.012 154.496C230.736 156.519 228.688 158.673 226.715 160.827L210.783 158.803L219.204 170.552C216.701 174.402 214.501 178.449 212.756 182.692L196.976 184.976L209.19 193.918C208.583 196.594 208.128 199.27 207.825 202.076L183.7 204.035C186.81 152.733 235.06 111.549 294.842 109.33L292.566 130.085C289.152 130.411 285.738 130.803 282.248 131.39ZM193.259 145.227L198.493 148.36C188.327 160.827 181.196 175.251 178.01 190.785L171.713 189.806C175.051 173.489 182.562 158.346 193.259 145.227ZM152.216 208.473L272.841 198.813L283.462 203.382C282.703 204.948 282.172 206.71 282.096 208.538L152.216 208.473ZM193.259 273.546C182.562 260.427 175.127 245.284 171.713 228.902L178.01 227.923C181.196 243.457 188.327 257.881 198.493 270.348L193.259 273.546ZM277.241 319.756C258.199 316.819 240.598 310.423 225.349 301.22L228.991 296.716C243.481 305.462 260.247 311.597 278.303 314.339L277.241 319.756ZM178.237 213.237L181.955 213.564C184.458 265.975 233.239 308.269 294.007 310.88L294.387 314.078C231.343 311.597 180.589 267.672 178.237 213.237ZM298.938 336.53L287.71 232.753L293.021 223.615C294.842 224.268 296.89 224.725 299.014 224.79L298.938 336.53ZM300.001 221.2C292.414 221.2 286.269 215.913 286.269 209.387C286.269 202.86 292.414 197.573 300.001 197.573C307.587 197.573 313.732 202.86 313.732 209.387C313.732 215.913 307.587 221.2 300.001 221.2ZM322.76 319.756L321.622 314.339C339.678 311.597 356.444 305.462 370.934 296.716L374.576 301.22C359.403 310.423 341.802 316.819 322.76 319.756ZM304.552 314.078L304.932 310.88C365.851 308.726 415.012 266.758 418.046 214.478L421.764 214.151C418.805 268.455 367.748 312.12 304.552 314.078ZM406.743 273.546L401.508 270.413C411.674 257.947 418.805 243.522 421.991 227.988L428.288 228.967C424.95 245.284 417.364 260.427 406.743 273.546ZM327.16 219.96L316.539 215.391C317.298 213.825 317.829 212.063 317.905 210.235H447.71L327.16 219.96Z" fill="#404040"/>
<path id="Vector_14" d="M300.001 216.892C304.819 216.892 308.725 213.532 308.725 209.387C308.725 205.241 304.819 201.881 300.001 201.881C295.182 201.881 291.276 205.241 291.276 209.387C291.276 213.532 295.182 216.892 300.001 216.892Z" fill="#404040"/>
</g>
</g>
<g id="button3">
<circle id="innerCircle" cx="519" cy="209" r="20" fill="#C4C4C4"/>
<path id="3" d="M516.57 207.414H518.199C519.223 207.398 520.027 207.129 520.613 206.605C521.199 206.082 521.492 205.375 521.492 204.484C521.492 202.484 520.496 201.484 518.504 201.484C517.566 201.484 516.816 201.754 516.254 202.293C515.699 202.824 515.422 203.531 515.422 204.414H513.254C513.254 203.062 513.746 201.941 514.73 201.051C515.723 200.152 516.98 199.703 518.504 199.703C520.113 199.703 521.375 200.129 522.289 200.98C523.203 201.832 523.66 203.016 523.66 204.531C523.66 205.273 523.418 205.992 522.934 206.688C522.457 207.383 521.805 207.902 520.977 208.246C521.914 208.543 522.637 209.035 523.145 209.723C523.66 210.41 523.918 211.25 523.918 212.242C523.918 213.773 523.418 214.988 522.418 215.887C521.418 216.785 520.117 217.234 518.516 217.234C516.914 217.234 515.609 216.801 514.602 215.934C513.602 215.066 513.102 213.922 513.102 212.5H515.281C515.281 213.398 515.574 214.117 516.16 214.656C516.746 215.195 517.531 215.465 518.516 215.465C519.562 215.465 520.363 215.191 520.918 214.645C521.473 214.098 521.75 213.312 521.75 212.289C521.75 211.297 521.445 210.535 520.836 210.004C520.227 209.473 519.348 209.199 518.199 209.184H516.57V207.414Z" fill="black"/>
<circle id="outerCircle" cx="519" cy="209" r="22.5" stroke="#F2994A" stroke-width="5"/>
</g>
<g id="button4">
<circle id="innerCircle_2" cx="447" cy="330" r="20" fill="#C4C4C4"/>
<path id="4" d="M450.57 332.27H452.938V334.039H450.57V338H448.391V334.039H440.621V332.762L448.262 320.938H450.57V332.27ZM443.082 332.27H448.391V323.902L448.133 324.371L443.082 332.27Z" fill="black"/>
<circle id="outerCircle_2" cx="447" cy="330" r="22.5" stroke="#F2994A" stroke-width="5"/>
</g>
<g id="button5">
<circle id="innerCircle_3" cx="300" cy="398" r="20" fill="#C4C4C4"/>
<path id="5" d="M295.414 397.445L296.281 388.938H305.023V390.941H298.121L297.605 395.594C298.441 395.102 299.391 394.855 300.453 394.855C302.008 394.855 303.242 395.371 304.156 396.402C305.07 397.426 305.527 398.812 305.527 400.562C305.527 402.32 305.051 403.707 304.098 404.723C303.152 405.73 301.828 406.234 300.125 406.234C298.617 406.234 297.387 405.816 296.434 404.98C295.48 404.145 294.938 402.988 294.805 401.512H296.855C296.988 402.488 297.336 403.227 297.898 403.727C298.461 404.219 299.203 404.465 300.125 404.465C301.133 404.465 301.922 404.121 302.492 403.434C303.07 402.746 303.359 401.797 303.359 400.586C303.359 399.445 303.047 398.531 302.422 397.844C301.805 397.148 300.98 396.801 299.949 396.801C299.004 396.801 298.262 397.008 297.723 397.422L297.148 397.891L295.414 397.445Z" fill="black"/>
<circle id="outerCircle_3" cx="300" cy="398" r="22.5" stroke="#F2994A" stroke-width="5"/>
</g>
<g id="button6">
<circle id="innerCircle_4" cx="158" cy="332" r="20" fill="#C4C4C4"/>
<path id="6" d="M160.926 322.926V324.766H160.527C158.84 324.797 157.496 325.297 156.496 326.266C155.496 327.234 154.918 328.598 154.762 330.355C155.66 329.324 156.887 328.809 158.441 328.809C159.926 328.809 161.109 329.332 161.992 330.379C162.883 331.426 163.328 332.777 163.328 334.434C163.328 336.191 162.848 337.598 161.887 338.652C160.934 339.707 159.652 340.234 158.043 340.234C156.41 340.234 155.086 339.609 154.07 338.359C153.055 337.102 152.547 335.484 152.547 333.508V332.676C152.547 329.535 153.215 327.137 154.551 325.48C155.895 323.816 157.891 322.965 160.539 322.926H160.926ZM158.078 330.613C157.336 330.613 156.652 330.836 156.027 331.281C155.402 331.727 154.969 332.285 154.727 332.957V333.754C154.727 335.16 155.043 336.293 155.676 337.152C156.309 338.012 157.098 338.441 158.043 338.441C159.02 338.441 159.785 338.082 160.34 337.363C160.902 336.645 161.184 335.703 161.184 334.539C161.184 333.367 160.898 332.422 160.328 331.703C159.766 330.977 159.016 330.613 158.078 330.613Z" fill="black"/>
<circle id="outerCircle_4" cx="158" cy="332" r="22.5" stroke="#F2994A" stroke-width="5"/>
</g>
<g id="button7">
<circle id="innerCircle_5" cx="73" cy="209" r="20" fill="#C4C4C4"/>
<path id="7" d="M78.4336 201.156L71.3672 217H69.0938L76.1367 201.719H66.9023V199.938H78.4336V201.156Z" fill="black"/>
<circle id="outerCircle_5" cx="73" cy="209" r="22.5" stroke="#F2994A" stroke-width="5"/>
</g>
<g id="button8">
<circle id="innerCircle_6" cx="158" cy="86" r="20" fill="#C4C4C4"/>
<path id="8" d="M162.766 81.3906C162.766 82.2422 162.539 83 162.086 83.6641C161.641 84.3281 161.035 84.8477 160.27 85.2227C161.16 85.6055 161.863 86.1641 162.379 86.8984C162.902 87.6328 163.164 88.4648 163.164 89.3945C163.164 90.8711 162.664 92.0469 161.664 92.9219C160.672 93.7969 159.363 94.2344 157.738 94.2344C156.098 94.2344 154.781 93.7969 153.789 92.9219C152.805 92.0391 152.312 90.8633 152.312 89.3945C152.312 88.4727 152.562 87.6406 153.062 86.8984C153.57 86.1562 154.27 85.5938 155.16 85.2109C154.402 84.8359 153.805 84.3164 153.367 83.6523C152.93 82.9883 152.711 82.2344 152.711 81.3906C152.711 79.9531 153.172 78.8125 154.094 77.9688C155.016 77.125 156.23 76.7031 157.738 76.7031C159.238 76.7031 160.449 77.125 161.371 77.9688C162.301 78.8125 162.766 79.9531 162.766 81.3906ZM160.996 89.3477C160.996 88.3945 160.691 87.6172 160.082 87.0156C159.48 86.4141 158.691 86.1133 157.715 86.1133C156.738 86.1133 155.953 86.4102 155.359 87.0039C154.773 87.5977 154.48 88.3789 154.48 89.3477C154.48 90.3164 154.766 91.0781 155.336 91.6328C155.914 92.1875 156.715 92.4648 157.738 92.4648C158.754 92.4648 159.551 92.1875 160.129 91.6328C160.707 91.0703 160.996 90.3086 160.996 89.3477ZM157.738 78.4844C156.887 78.4844 156.195 78.75 155.664 79.2812C155.141 79.8047 154.879 80.5195 154.879 81.4258C154.879 82.293 155.137 82.9961 155.652 83.5352C156.176 84.0664 156.871 84.332 157.738 84.332C158.605 84.332 159.297 84.0664 159.812 83.5352C160.336 82.9961 160.598 82.293 160.598 81.4258C160.598 80.5586 160.328 79.8516 159.789 79.3047C159.25 78.7578 158.566 78.4844 157.738 78.4844Z" fill="black"/>
<circle id="outerCircle_6" cx="158" cy="86" r="22.5" stroke="#F2994A" stroke-width="5"/>
</g>
<g id="button1">
<circle id="innerCircle_7" cx="299" cy="25" r="20" fill="#C4C4C4"/>
<path id="1" d="M300.543 33H298.363V18.5508L293.992 20.1562V18.1875L300.203 15.8555H300.543V33Z" fill="black"/>
<circle id="outerCircle_7" cx="299" cy="25" r="22.5" stroke="#F2994A" stroke-width="5"/>
</g>
<g id="button2">
<circle id="innerCircle_8" cx="437" cy="86" r="20" fill="#C4C4C4"/>
<path id="2" d="M442.598 94H431.418V92.4414L437.324 85.8789C438.199 84.8867 438.801 84.082 439.129 83.4648C439.465 82.8398 439.633 82.1953 439.633 81.5312C439.633 80.6406 439.363 79.9102 438.824 79.3398C438.285 78.7695 437.566 78.4844 436.668 78.4844C435.59 78.4844 434.75 78.793 434.148 79.4102C433.555 80.0195 433.258 80.8711 433.258 81.9648H431.09C431.09 80.3945 431.594 79.125 432.602 78.1562C433.617 77.1875 434.973 76.7031 436.668 76.7031C438.254 76.7031 439.508 77.1211 440.43 77.957C441.352 78.7852 441.812 79.8906 441.812 81.2734C441.812 82.9531 440.742 84.9531 438.602 87.2734L434.031 92.2305H442.598V94Z" fill="black"/>
<circle id="outerCircle_8" cx="437" cy="86" r="22.5" stroke="#F2994A" stroke-width="5"/>
</g>
</g>
</svg>
