<svg width="418" height="470" viewBox="0 0 418 470" fill="none" xmlns="http://www.w3.org/2000/svg">
<path id="head" d="M398 469.5L389.5 456.5L378.5 437L370.5 419L364.5 395.5L362 382.5V365V354.5L364.5 343L370.5 321.5L389.5 273L404.5 238L411 219.5L415 205.5L417.5 189.5V172.5V146.5L415 134L402 94.5L384.5 66L359.5 40.5L324.5 19.5L298 10L260 3.5L219.5 1L177.5 6L146.5 14L118.5 25.5L88 45L64 74.5L49 108L40 141.5L37.5 163V172.5L43.5 182.5L46.5 189.5V196V198.5L43.5 209L29.5 227.5L10 260.5L1 276.5V281V287L3.5 291L10 294.5L24 297.5H29.5H33.5V303.5L26.5 316.5V321.5H29.5L33.5 324L43.5 327.5L37.5 330L33.5 333L29.5 338L33.5 343L40 349.5V358.5L37.5 365V375.5V387L43.5 398.5L55 405L66.5 408H78.5L98.5 411.5L113.5 416L124.5 426L138 444.5L151 469.5" stroke="black"/>
</svg>
