<svg width="600" height="425" viewBox="0 0 600 425" fill="none" xmlns="http://www.w3.org/2000/svg">
<g id="Frame 7">
<rect width="600" height="425" fill="white"/>
<g id="Transmission-tower-1-by-Rones 1">
<g id="layer1">
<path id="path3943" d="M298.097 51L190 425H196.841L299.987 69.2356L403.159 425H410L301.976 51" fill="#FF0000"/>
<path id="path3945" d="M240.349 136.367H359.651" stroke="#FF0000" stroke-width="8"/>
<path id="path3947" d="M212.193 221.773H387.807" stroke="#FF0000" stroke-width="8"/>
<path id="path3949" d="M206 385L371 303" stroke="#FF0000" stroke-width="8" stroke-linecap="round"/>
<path id="path3951" d="M393.5 385.5L229.192 302.963" stroke="#FF0000" stroke-width="8" stroke-linecap="round"/>
<path id="path3953" d="M190 303L410 303" stroke="#FF0000" stroke-width="8"/>
<path id="path3955" d="M230.02 303.666L347.249 221.773" stroke="#FF0000" stroke-width="8" stroke-linecap="round"/>
<path id="path3957" d="M369.98 303.666L252.751 221.773" stroke="#FF0000" stroke-width="8" stroke-linecap="round"/>
<path id="path3959" d="M252.803 219.306L323.65 136.596" stroke="#FF0000" stroke-width="8" stroke-linecap="round"/>
<path id="path3961" d="M346.981 219.306L276.134 136.596" stroke="#FF0000" stroke-width="8" stroke-linecap="round"/>
</g>
</g>
<g id="button1">
<circle id="innerCircle" cx="177" cy="263" r="20" fill="#C4C4C4"/>
<path id="1" d="M178.543 271H176.363V256.551L171.992 258.156V256.188L178.203 253.855H178.543V271Z" fill="black"/>
<circle id="outerCircle" cx="177" cy="263" r="22.5" stroke="#F2994A" stroke-width="5"/>
</g>
<g id="button2">
<circle id="innerCircle_2" cx="430" cy="263" r="20" fill="#C4C4C4"/>
<path id="2" d="M435.598 271H424.418V269.441L430.324 262.879C431.199 261.887 431.801 261.082 432.129 260.465C432.465 259.84 432.633 259.195 432.633 258.531C432.633 257.641 432.363 256.91 431.824 256.34C431.285 255.77 430.566 255.484 429.668 255.484C428.59 255.484 427.75 255.793 427.148 256.41C426.555 257.02 426.258 257.871 426.258 258.965H424.09C424.09 257.395 424.594 256.125 425.602 255.156C426.617 254.188 427.973 253.703 429.668 253.703C431.254 253.703 432.508 254.121 433.43 254.957C434.352 255.785 434.812 256.891 434.812 258.273C434.812 259.953 433.742 261.953 431.602 264.273L427.031 269.23H435.598V271Z" fill="black"/>
<circle id="outerCircle_2" cx="430" cy="263" r="22.5" stroke="#F2994A" stroke-width="5"/>
</g>
<g id="button5">
<circle id="innerCircle_3" cx="249" cy="89" r="20" fill="#C4C4C4"/>
<path id="5" d="M244.414 88.4453L245.281 79.9375H254.023V81.9414H247.121L246.605 86.5938C247.441 86.1016 248.391 85.8555 249.453 85.8555C251.008 85.8555 252.242 86.3711 253.156 87.4023C254.07 88.4258 254.527 89.8125 254.527 91.5625C254.527 93.3203 254.051 94.707 253.098 95.7227C252.152 96.7305 250.828 97.2344 249.125 97.2344C247.617 97.2344 246.387 96.8164 245.434 95.9805C244.48 95.1445 243.938 93.9883 243.805 92.5117H245.855C245.988 93.4883 246.336 94.2266 246.898 94.7266C247.461 95.2188 248.203 95.4648 249.125 95.4648C250.133 95.4648 250.922 95.1211 251.492 94.4336C252.07 93.7461 252.359 92.7969 252.359 91.5859C252.359 90.4453 252.047 89.5312 251.422 88.8438C250.805 88.1484 249.98 87.8008 248.949 87.8008C248.004 87.8008 247.262 88.0078 246.723 88.4219L246.148 88.8906L244.414 88.4453Z" fill="black"/>
<circle id="outerCircle_3" cx="249" cy="89" r="22.5" stroke="#F2994A" stroke-width="5"/>
</g>
<g id="button6">
<circle id="innerCircle_4" cx="360" cy="89" r="20" fill="#C4C4C4"/>
<path id="6" d="M362.926 79.9258V81.7656H362.527C360.84 81.7969 359.496 82.2969 358.496 83.2656C357.496 84.2344 356.918 85.5977 356.762 87.3555C357.66 86.3242 358.887 85.8086 360.441 85.8086C361.926 85.8086 363.109 86.332 363.992 87.3789C364.883 88.4258 365.328 89.7773 365.328 91.4336C365.328 93.1914 364.848 94.5977 363.887 95.6523C362.934 96.707 361.652 97.2344 360.043 97.2344C358.41 97.2344 357.086 96.6094 356.07 95.3594C355.055 94.1016 354.547 92.4844 354.547 90.5078V89.6758C354.547 86.5352 355.215 84.1367 356.551 82.4805C357.895 80.8164 359.891 79.9648 362.539 79.9258H362.926ZM360.078 87.6133C359.336 87.6133 358.652 87.8359 358.027 88.2812C357.402 88.7266 356.969 89.2852 356.727 89.957V90.7539C356.727 92.1602 357.043 93.293 357.676 94.1523C358.309 95.0117 359.098 95.4414 360.043 95.4414C361.02 95.4414 361.785 95.082 362.34 94.3633C362.902 93.6445 363.184 92.7031 363.184 91.5391C363.184 90.3672 362.898 89.4219 362.328 88.7031C361.766 87.9766 361.016 87.6133 360.078 87.6133Z" fill="black"/>
<circle id="outerCircle_4" cx="360" cy="89" r="22.5" stroke="#F2994A" stroke-width="5"/>
</g>
<g id="button7">
<circle id="innerCircle_5" cx="300" cy="28" r="20" fill="#C4C4C4"/>
<path id="7" d="M305.434 20.1562L298.367 36H296.094L303.137 20.7188H293.902V18.9375H305.434V20.1562Z" fill="black"/>
<circle id="outerCircle_5" cx="300" cy="28" r="22.5" stroke="#F2994A" stroke-width="5"/>
</g>
<g id="button3">
<circle id="innerCircle_6" cx="211" cy="175" r="20" fill="#C4C4C4"/>
<path id="3" d="M208.57 173.414H210.199C211.223 173.398 212.027 173.129 212.613 172.605C213.199 172.082 213.492 171.375 213.492 170.484C213.492 168.484 212.496 167.484 210.504 167.484C209.566 167.484 208.816 167.754 208.254 168.293C207.699 168.824 207.422 169.531 207.422 170.414H205.254C205.254 169.062 205.746 167.941 206.73 167.051C207.723 166.152 208.98 165.703 210.504 165.703C212.113 165.703 213.375 166.129 214.289 166.98C215.203 167.832 215.66 169.016 215.66 170.531C215.66 171.273 215.418 171.992 214.934 172.688C214.457 173.383 213.805 173.902 212.977 174.246C213.914 174.543 214.637 175.035 215.145 175.723C215.66 176.41 215.918 177.25 215.918 178.242C215.918 179.773 215.418 180.988 214.418 181.887C213.418 182.785 212.117 183.234 210.516 183.234C208.914 183.234 207.609 182.801 206.602 181.934C205.602 181.066 205.102 179.922 205.102 178.5H207.281C207.281 179.398 207.574 180.117 208.16 180.656C208.746 181.195 209.531 181.465 210.516 181.465C211.562 181.465 212.363 181.191 212.918 180.645C213.473 180.098 213.75 179.312 213.75 178.289C213.75 177.297 213.445 176.535 212.836 176.004C212.227 175.473 211.348 175.199 210.199 175.184H208.57V173.414Z" fill="black"/>
<circle id="outerCircle_6" cx="211" cy="175" r="22.5" stroke="#F2994A" stroke-width="5"/>
</g>
<g id="button4">
<circle id="innerCircle_7" cx="387" cy="175" r="20" fill="#C4C4C4"/>
<path id="4" d="M390.57 177.27H392.938V179.039H390.57V183H388.391V179.039H380.621V177.762L388.262 165.938H390.57V177.27ZM383.082 177.27H388.391V168.902L388.133 169.371L383.082 177.27Z" fill="black"/>
<circle id="outerCircle_7" cx="387" cy="175" r="22.5" stroke="#F2994A" stroke-width="5"/>
</g>
</g>
</svg>
