<svg width="600" height="425" viewBox="0 0 600 425" fill="none" xmlns="http://www.w3.org/2000/svg">
<g id="Frame 5">
<rect width="600" height="425" fill="white"/>
<g id="racecar">
<path id="Rectangle 35" d="M274 169C274 166.239 276.239 164 279 164H282V181H274V169Z" fill="#FF0000"/>
<path id="Polygon 7" d="M157.97 217.75L179 172.555L200.03 217.75H157.97Z" fill="white" stroke="#FF0000" stroke-width="3"/>
<path id="Polygon 8" d="M200.196 214.304L179.584 259.691L158.138 214.692L200.196 214.304Z" fill="white" stroke="#FF0000" stroke-width="3"/>
<path id="Polygon 4" d="M402.202 215.313L442.046 186.704L441.696 244.405L402.202 215.313Z" fill="#FF0000"/>
<path id="Polygon 3" d="M113.297 214.999L291.141 190.775L290.627 242.733L113.297 214.999Z" fill="#FF0000"/>
<rect id="Rectangle 6" x="153" y="149" width="51" height="23" rx="5" fill="#FF0000"/>
<rect id="Rectangle 8" x="153" y="261" width="51" height="23" rx="5" fill="#FF0000"/>
<rect id="Rectangle 9" x="419" y="259" width="51" height="23" rx="5" fill="#FF0000"/>
<rect id="Rectangle 7" x="419" y="149" width="51" height="23" rx="5" fill="#FF0000"/>
<g id="Rectangle 10" filter="url(#filter0_d)">
<rect x="108" y="205" width="130" height="24" fill="#FF0000"/>
</g>
<rect id="Rectangle 11" x="149" y="197" width="14" height="39" fill="#FF0000"/>
<rect id="Rectangle 12" x="470" y="181" width="15" height="70" fill="#FF0000"/>
<rect id="Rectangle 13" x="452" y="175" width="7" height="83" fill="#FF0000"/>
<rect id="Rectangle 14" x="452" y="184" width="23" height="3" fill="#FF0000"/>
<rect id="Rectangle 15" x="455" y="213" width="23" height="3" fill="#FF0000"/>
<rect id="Rectangle 16" x="455" y="244" width="23" height="3" fill="#FF0000"/>
<rect id="Rectangle 17" x="445" y="182" width="9" height="69" fill="#FF0000"/>
<rect id="Rectangle 18" x="176" y="177" width="5" height="77" fill="#FF0000"/>
<rect id="Rectangle 19" x="151" y="175" width="20" height="7" fill="#FF0000"/>
<rect id="Rectangle 20" x="151" y="253" width="20" height="6" fill="#FF0000"/>
<path id="Rectangle 21" d="M278 164H411C413.761 164 416 166.239 416 169V264C416 266.761 413.761 269 411 269H278V164Z" fill="#FF0000"/>
<path id="Rectangle 22" d="M262 166C262 163.239 264.239 161 267 161H274V177H262V166Z" fill="#FF0000"/>
<path id="Rectangle 23" d="M262 255H274V271H267C264.239 271 262 268.761 262 266V255Z" fill="#FF0000"/>
<rect id="Rectangle 24" x="255" y="185" width="5" height="62" fill="#FF0000"/>
<rect id="Rectangle 25" x="260" y="179" width="4" height="9" fill="#FF0000"/>
<rect id="Rectangle 26" x="260" y="244" width="4" height="9" fill="#FF0000"/>
<rect id="Rectangle 27" x="269" y="177" width="13" height="79" fill="#FF0000"/>
<rect id="Rectangle 28" x="168" y="181" width="3" height="74" fill="#FF0000"/>
<path id="Rectangle 29" d="M103 159C103 157.343 104.343 156 106 156H147V159H103V159Z" fill="#FF0000"/>
<path id="Rectangle 30" d="M103 276H147V279H106C104.343 279 103 277.657 103 276V276Z" fill="#FF0000"/>
<rect id="Rectangle 31" x="103" y="159" width="16" height="13" fill="#FF0000"/>
<rect id="Rectangle 34" x="103" y="264" width="16" height="13" fill="#FF0000"/>
<path id="Polygon 5" d="M403.323 220.068L439.876 248.864L366.677 248.746L403.323 220.068Z" fill="#FF0000"/>
<path id="Polygon 6" d="M405.261 210.437L368.745 181.595L441.944 181.806L405.261 210.437Z" fill="#FF0000"/>
<rect id="Rectangle 32" x="423" y="174" width="17" height="8" fill="#FF0000"/>
<rect id="Rectangle 33" x="423" y="249" width="17" height="9" fill="#FF0000"/>
<path id="Rectangle 36" d="M273 256H279V267H278C275.239 267 273 264.761 273 262V256Z" fill="#FF0000"/>
<rect id="Rectangle 37" x="106" y="169" width="11" height="96" fill="#FF0000"/>
<rect id="Rectangle 38" x="114" y="200" width="11" height="36" fill="#FF0000"/>
<rect id="Rectangle 39" width="1" height="12" transform="matrix(-1 0 0 1 106 211)" fill="#C4C4C4"/>
<rect id="Rectangle 40" width="1" height="12" transform="matrix(-1 0 0 1 106 211)" fill="#FF0000"/>
<rect id="Rectangle 41" width="1" height="8" transform="matrix(-1 0 0 1 105 212)" fill="#FF0000"/>
<line id="Line 1" x1="181.8" y1="263.1" x2="211.8" y2="223.1" stroke="#FF0000" stroke-width="3"/>
<line id="Line 2" x1="183.171" y1="172.063" x2="211.171" y2="207.063" stroke="#FF0000" stroke-width="3"/>
</g>
<g id="raceSign">
<rect id="Rectangle 42" x="80" y="190" width="5" height="52" fill="#404040"/>
<rect id="Rectangle 43" x="78" y="211" width="2" height="61" fill="#404040"/>
</g>
<g id="button3">
<circle id="innerCircle" cx="176" cy="110" r="20" fill="#C4C4C4"/>
<path id="3" d="M173.57 108.414H175.199C176.223 108.398 177.027 108.129 177.613 107.605C178.199 107.082 178.492 106.375 178.492 105.484C178.492 103.484 177.496 102.484 175.504 102.484C174.566 102.484 173.816 102.754 173.254 103.293C172.699 103.824 172.422 104.531 172.422 105.414H170.254C170.254 104.062 170.746 102.941 171.73 102.051C172.723 101.152 173.98 100.703 175.504 100.703C177.113 100.703 178.375 101.129 179.289 101.98C180.203 102.832 180.66 104.016 180.66 105.531C180.66 106.273 180.418 106.992 179.934 107.688C179.457 108.383 178.805 108.902 177.977 109.246C178.914 109.543 179.637 110.035 180.145 110.723C180.66 111.41 180.918 112.25 180.918 113.242C180.918 114.773 180.418 115.988 179.418 116.887C178.418 117.785 177.117 118.234 175.516 118.234C173.914 118.234 172.609 117.801 171.602 116.934C170.602 116.066 170.102 114.922 170.102 113.5H172.281C172.281 114.398 172.574 115.117 173.16 115.656C173.746 116.195 174.531 116.465 175.516 116.465C176.562 116.465 177.363 116.191 177.918 115.645C178.473 115.098 178.75 114.312 178.75 113.289C178.75 112.297 178.445 111.535 177.836 111.004C177.227 110.473 176.348 110.199 175.199 110.184H173.57V108.414Z" fill="black"/>
<circle id="outerCircle" cx="176" cy="110" r="22.5" stroke="#F2994A" stroke-width="5"/>
</g>
<g id="button5">
<circle id="innerCircle_2" cx="445" cy="110" r="20" fill="#C4C4C4"/>
<path id="5" d="M440.414 109.445L441.281 100.938H450.023V102.941H443.121L442.605 107.594C443.441 107.102 444.391 106.855 445.453 106.855C447.008 106.855 448.242 107.371 449.156 108.402C450.07 109.426 450.527 110.812 450.527 112.562C450.527 114.32 450.051 115.707 449.098 116.723C448.152 117.73 446.828 118.234 445.125 118.234C443.617 118.234 442.387 117.816 441.434 116.98C440.48 116.145 439.938 114.988 439.805 113.512H441.855C441.988 114.488 442.336 115.227 442.898 115.727C443.461 116.219 444.203 116.465 445.125 116.465C446.133 116.465 446.922 116.121 447.492 115.434C448.07 114.746 448.359 113.797 448.359 112.586C448.359 111.445 448.047 110.531 447.422 109.844C446.805 109.148 445.98 108.801 444.949 108.801C444.004 108.801 443.262 109.008 442.723 109.422L442.148 109.891L440.414 109.445Z" fill="black"/>
<circle id="outerCircle_2" cx="445" cy="110" r="22.5" stroke="#F2994A" stroke-width="5"/>
</g>
<g id="button2">
<circle id="innerCircle_3" cx="176" cy="320" r="20" fill="#C4C4C4"/>
<path id="2" d="M181.598 328H170.418V326.441L176.324 319.879C177.199 318.887 177.801 318.082 178.129 317.465C178.465 316.84 178.633 316.195 178.633 315.531C178.633 314.641 178.363 313.91 177.824 313.34C177.285 312.77 176.566 312.484 175.668 312.484C174.59 312.484 173.75 312.793 173.148 313.41C172.555 314.02 172.258 314.871 172.258 315.965H170.09C170.09 314.395 170.594 313.125 171.602 312.156C172.617 311.188 173.973 310.703 175.668 310.703C177.254 310.703 178.508 311.121 179.43 311.957C180.352 312.785 180.812 313.891 180.812 315.273C180.812 316.953 179.742 318.953 177.602 321.273L173.031 326.23H181.598V328Z" fill="black"/>
<circle id="outerCircle_3" cx="176" cy="320" r="22.5" stroke="#F2994A" stroke-width="5"/>
</g>
<g id="button4">
<circle id="innerCircle_4" cx="445" cy="320" r="20" fill="#C4C4C4"/>
<path id="4" d="M448.57 322.27H450.938V324.039H448.57V328H446.391V324.039H438.621V322.762L446.262 310.938H448.57V322.27ZM441.082 322.27H446.391V313.902L446.133 314.371L441.082 322.27Z" fill="black"/>
<circle id="outerCircle_4" cx="445" cy="320" r="22.5" stroke="#F2994A" stroke-width="5"/>
</g>
<g id="button1">
<circle id="innerCircle_5" cx="40" cy="220" r="20" fill="#C4C4C4"/>
<path id="1" d="M41.543 228H39.3633V213.551L34.9922 215.156V213.188L41.2031 210.855H41.543V228Z" fill="black"/>
<circle id="outerCircle_5" cx="40" cy="220" r="22.5" stroke="#F2994A" stroke-width="5"/>
</g>
</g>
<defs>
<filter id="filter0_d" x="104" y="205" width="138" height="32" filterUnits="userSpaceOnUse" color-interpolation-filters="sRGB">
<feFlood flood-opacity="0" result="BackgroundImageFix"/>
<feColorMatrix in="SourceAlpha" type="matrix" values="0 0 0 0 0 0 0 0 0 0 0 0 0 0 0 0 0 0 127 0"/>
<feOffset dy="4"/>
<feGaussianBlur stdDeviation="2"/>
<feColorMatrix type="matrix" values="0 0 0 0 0 0 0 0 0 0 0 0 0 0 0 0 0 0 0.25 0"/>
<feBlend mode="normal" in2="BackgroundImageFix" result="effect1_dropShadow"/>
<feBlend mode="normal" in="SourceGraphic" in2="effect1_dropShadow" result="shape"/>
</filter>
</defs>
</svg>
